<svg width="29" height="29" viewBox="0 0 29 29" fill="none" xmlns="http://www.w3.org/2000/svg">
<path fill-rule="evenodd" clip-rule="evenodd" d="M20.9041 18.4875C20.5416 18.7292 20.2999 18.7292 20.0583 18.85C19.8166 18.85 19.6958 18.9708 19.5749 19.0917C19.3333 19.0917 19.3333 19.3333 19.3333 19.4542C19.3333 19.575 19.3333 19.6958 19.2124 19.8167C19.0916 19.9375 18.8499 19.9375 18.6083 19.9375C18.2458 19.9375 17.7624 19.9375 17.2791 20.1792C17.0374 20.3 16.7958 20.4208 16.5541 20.5417C16.0708 20.9042 15.5874 21.1458 14.6208 21.1458C13.6541 21.1458 13.1708 20.7833 12.6874 20.5417C12.4458 20.4208 12.2041 20.1792 11.9624 20.1792C11.4791 20.0583 10.9958 19.9375 10.6333 19.9375C10.3916 19.9375 10.1499 19.9375 10.0291 19.8167C9.66659 19.6958 9.66659 19.575 9.66659 19.4542C9.66659 19.3333 9.66659 19.0917 9.42492 19.0917C9.30409 18.9708 9.06242 18.9708 8.94159 18.85C8.69992 18.7292 8.45825 18.7292 8.09575 18.4875C7.73325 18.2458 7.97492 18.125 8.09575 18.0042C10.3916 16.9167 10.7541 15.1042 10.7541 14.9833C10.7541 14.8625 10.7541 14.7417 10.6333 14.6208C10.5124 14.5 10.1499 14.2583 9.78742 14.1375C9.66659 14.0167 9.54575 14.0167 9.42492 13.8958C9.06242 13.6542 8.94159 13.4125 9.06242 13.1708C9.18325 12.9292 9.30409 12.9292 9.54575 12.9292C9.66659 12.9292 9.66659 12.9292 9.78742 12.9292C10.0291 12.9292 10.2708 13.05 10.3916 13.1708C10.5124 13.1708 10.6333 13.2917 10.7541 13.2917C10.7541 13.2917 10.7541 13.2917 10.8749 13.2917C10.9958 13.2917 10.9958 13.2917 10.9958 13.05V12.9292C10.9958 12.5667 10.8749 11.7208 10.9958 11.1167C11.1166 10.15 11.3583 9.54583 11.8416 9.18333C12.0833 8.94166 12.9291 8.09583 14.6208 8.09583C16.3124 8.09583 17.1583 9.06249 17.3999 9.18333C17.7624 9.66666 18.1249 10.15 18.2458 11.1167C18.3666 11.8417 18.2458 12.5667 18.2458 13.05C18.2458 13.1708 18.2458 13.2917 18.3666 13.2917C18.3666 13.2917 18.3666 13.2917 18.4874 13.2917C18.6083 13.2917 18.7291 13.1708 18.8499 13.1708C19.0916 13.05 19.2124 13.05 19.4541 12.9292C19.4541 12.9292 19.5749 12.9292 19.6958 12.9292C19.9374 12.9292 20.0583 13.05 20.1791 13.1708C20.2999 13.4125 20.1791 13.6542 19.8166 13.8958C19.6958 13.8958 19.5749 14.0167 19.4541 14.1375C19.2124 14.3792 18.7291 14.6208 18.6083 14.6208C18.4874 14.7417 18.4874 14.8625 18.4874 14.9833C18.4874 15.1042 18.8499 16.7958 21.1458 18.0042C21.1458 18.125 21.3874 18.2458 20.9041 18.4875Z" stroke="#3AC2CB" stroke-miterlimit="10" stroke-linejoin="round"/>
<path d="M14.5001 26.5834C21.1735 26.5834 26.5834 21.1735 26.5834 14.5001C26.5834 7.82664 21.1735 2.41675 14.5001 2.41675C7.82664 2.41675 2.41675 7.82664 2.41675 14.5001C2.41675 21.1735 7.82664 26.5834 14.5001 26.5834Z" stroke="#3AC2CB" stroke-miterlimit="10" stroke-linejoin="round"/>
</svg>
